<?xml version="1.0" encoding="UTF-8" standalone="no"?>
<!DOCTYPE svg PUBLIC "-//W3C//DTD SVG 1.1//EN" "http://www.w3.org/Graphics/SVG/1.1/DTD/svg11.dtd">
<svg width="100%" height="100%" viewBox="0 0 1000 1000" version="1.1" xmlns="http://www.w3.org/2000/svg" xmlns:xlink="http://www.w3.org/1999/xlink" xml:space="preserve" xmlns:serif="http://www.serif.com/" style="fill-rule:evenodd;clip-rule:evenodd;">
    <g id="Artboard1" transform="matrix(0.408163,0,0,1,0,0)">
        <rect x="0" y="0" width="2450" height="1000" style="fill:none;"/>
        <g transform="matrix(2.45,0,0,1,-2.78533e-13,-1.13687e-13)">
            <circle cx="500" cy="500" r="481.461" style="fill:rgb(13,121,242);"/>
        </g>
        <g id="ring" transform="matrix(2.45,0,0,1,0,0)">
            <circle cx="500" cy="500" r="385" style="fill:none;stroke:white;stroke-width:50px;"/>
        </g>
        <g id="letter_n" transform="matrix(2.45,0,0,1,0,0)">
            <path d="M417.471,355.351L417.471,367.167C434.657,344.491 453.395,327.901 473.684,317.399C494.212,306.657 517.723,301.287 544.218,301.287C569.997,301.287 593.031,306.896 613.32,318.115C633.609,329.333 648.766,345.207 658.792,365.734C665.236,377.669 669.413,390.559 671.323,404.403C673.233,418.247 674.187,435.911 674.187,457.393L674.187,639.278C674.187,658.851 669.652,673.65 660.582,683.676C651.75,693.701 640.173,698.713 625.852,698.713C611.291,698.713 599.476,693.581 590.406,683.317C581.335,673.054 576.8,658.374 576.8,639.278L576.8,476.369C576.8,444.145 572.265,419.56 563.194,402.613C554.363,385.427 536.58,376.834 509.846,376.834C492.421,376.834 476.548,382.085 462.227,392.587C447.905,402.851 437.402,417.054 430.719,435.194C425.945,449.755 423.558,476.966 423.558,516.828L423.558,639.278C423.558,659.09 418.904,674.008 409.594,684.034C400.524,693.82 388.709,698.713 374.148,698.713C360.065,698.713 348.489,693.581 339.418,683.317C330.348,673.054 325.813,658.374 325.813,639.278L325.813,356.783C325.813,338.165 329.87,324.321 337.986,315.25C346.102,305.941 357.201,301.287 371.284,301.287C379.877,301.287 387.635,303.316 394.557,307.374C401.479,311.431 406.969,317.518 411.027,325.634C415.323,333.749 417.471,343.655 417.471,355.351Z" style="fill:white;fill-rule:nonzero;"/>
        </g>
        <g transform="matrix(2.50794,0,0,1.02365,-28.9695,-2.71959)">
            <circle cx="500" cy="115" r="86.315" style="fill:rgb(13,121,242);"/>
        </g>
        <g transform="matrix(2.37407,0,0,0.969007,851.355,587.277)">
            <circle cx="500" cy="115" r="86.315" style="fill:rgb(13,121,242);"/>
        </g>
        <g transform="matrix(1.69022,0,0,0.689887,-421.632,619.376)">
            <circle cx="500" cy="115" r="86.315" style="fill:rgb(13,121,242);"/>
        </g>
        <g transform="matrix(17.893,0,0,7.30325,1010.28,27.361)">
            <path d="M3,12C9.268,12 12,9.363 12,3C12,9.363 14.713,12 21,12C14.713,12 12,14.713 12,21C12,14.713 9.268,12 3,12Z" style="fill:white;fill-rule:nonzero;stroke:white;stroke-width:1.5px;stroke-linejoin:round;"/>
        </g>
        <g transform="matrix(11.4601,0,0,4.67761,285.957,642.582)">
            <path d="M3,12C9.268,12 12,9.363 12,3C12,9.363 14.713,12 21,12C14.713,12 12,14.713 12,21C12,14.713 9.268,12 3,12Z" style="fill:white;fill-rule:nonzero;stroke:white;stroke-width:1.5px;stroke-linejoin:round;"/>
        </g>
        <g transform="matrix(16.2103,0,0,6.61643,1843.87,619.316)">
            <path d="M3,12C9.268,12 12,9.363 12,3C12,9.363 14.713,12 21,12C14.713,12 12,14.713 12,21C12,14.713 9.268,12 3,12Z" style="fill:white;fill-rule:nonzero;stroke:white;stroke-width:1.5px;stroke-linejoin:round;"/>
        </g>
    </g>
</svg>
